<mxfile host="app.diagrams.net" modified="2022-12-15T20:56:37.916Z" agent="5.0 (Windows NT 10.0; Win64; x64) AppleWebKit/537.36 (KHTML, like Gecko) Chrome/107.0.0.0 Safari/537.36 OPR/93.0.0.0 (Edition Yx GX)" version="20.7.3" etag="d0PfukRYiyYfp_-zClcv" type="github">
  <diagram id="5I3HM32fF0VNOapk9ti5" name="Страница 1">
    <mxGraphModel dx="794" dy="471" grid="1" gridSize="10" guides="1" tooltips="1" connect="1" arrows="1" fold="1" page="1" pageScale="1" pageWidth="827" pageHeight="1169" math="0" shadow="0">
      <root>
        <mxCell id="0" />
        <mxCell id="1" parent="0" />
        <mxCell id="NEniKNVKTmc0Q9m42chb-7" value="" style="edgeStyle=orthogonalEdgeStyle;rounded=0;orthogonalLoop=1;jettySize=auto;html=1;" edge="1" parent="1" source="NEniKNVKTmc0Q9m42chb-3" target="NEniKNVKTmc0Q9m42chb-6">
          <mxGeometry relative="1" as="geometry" />
        </mxCell>
        <mxCell id="NEniKNVKTmc0Q9m42chb-3" value="text = input().split&lt;br&gt;l = []" style="shape=parallelogram;perimeter=parallelogramPerimeter;whiteSpace=wrap;html=1;fixedSize=1;" vertex="1" parent="1">
          <mxGeometry x="237" y="140" width="154" height="80" as="geometry" />
        </mxCell>
        <mxCell id="NEniKNVKTmc0Q9m42chb-5" value="" style="edgeStyle=orthogonalEdgeStyle;rounded=0;orthogonalLoop=1;jettySize=auto;html=1;" edge="1" parent="1" source="NEniKNVKTmc0Q9m42chb-4" target="NEniKNVKTmc0Q9m42chb-3">
          <mxGeometry relative="1" as="geometry" />
        </mxCell>
        <mxCell id="NEniKNVKTmc0Q9m42chb-4" value="Start" style="ellipse;whiteSpace=wrap;html=1;" vertex="1" parent="1">
          <mxGeometry x="241" y="30" width="146" height="80" as="geometry" />
        </mxCell>
        <mxCell id="NEniKNVKTmc0Q9m42chb-9" value="" style="edgeStyle=orthogonalEdgeStyle;rounded=0;orthogonalLoop=1;jettySize=auto;html=1;" edge="1" parent="1" source="NEniKNVKTmc0Q9m42chb-6" target="NEniKNVKTmc0Q9m42chb-8">
          <mxGeometry relative="1" as="geometry" />
        </mxCell>
        <mxCell id="NEniKNVKTmc0Q9m42chb-21" value="" style="edgeStyle=orthogonalEdgeStyle;rounded=0;orthogonalLoop=1;jettySize=auto;html=1;" edge="1" parent="1" source="NEniKNVKTmc0Q9m42chb-6" target="NEniKNVKTmc0Q9m42chb-20">
          <mxGeometry relative="1" as="geometry" />
        </mxCell>
        <mxCell id="NEniKNVKTmc0Q9m42chb-6" value="for i in range(len(text))" style="rhombus;whiteSpace=wrap;html=1;" vertex="1" parent="1">
          <mxGeometry x="245" y="260" width="138" height="100" as="geometry" />
        </mxCell>
        <mxCell id="NEniKNVKTmc0Q9m42chb-17" value="" style="edgeStyle=orthogonalEdgeStyle;rounded=0;orthogonalLoop=1;jettySize=auto;html=1;" edge="1" parent="1" source="NEniKNVKTmc0Q9m42chb-8" target="NEniKNVKTmc0Q9m42chb-11">
          <mxGeometry relative="1" as="geometry" />
        </mxCell>
        <mxCell id="NEniKNVKTmc0Q9m42chb-8" value="if len(text[i]) &amp;lt;= 3" style="rhombus;whiteSpace=wrap;html=1;" vertex="1" parent="1">
          <mxGeometry x="245" y="390" width="138" height="100" as="geometry" />
        </mxCell>
        <mxCell id="NEniKNVKTmc0Q9m42chb-11" value="l.append(text[i])" style="rounded=0;whiteSpace=wrap;html=1;" vertex="1" parent="1">
          <mxGeometry x="254" y="525" width="120" height="60" as="geometry" />
        </mxCell>
        <mxCell id="NEniKNVKTmc0Q9m42chb-14" value="" style="endArrow=classic;html=1;rounded=0;exitX=0;exitY=0.5;exitDx=0;exitDy=0;entryX=0;entryY=0.5;entryDx=0;entryDy=0;" edge="1" parent="1" source="NEniKNVKTmc0Q9m42chb-11" target="NEniKNVKTmc0Q9m42chb-6">
          <mxGeometry width="50" height="50" relative="1" as="geometry">
            <mxPoint x="280" y="440" as="sourcePoint" />
            <mxPoint x="330" y="390" as="targetPoint" />
            <Array as="points">
              <mxPoint x="180" y="555" />
              <mxPoint x="180" y="310" />
            </Array>
          </mxGeometry>
        </mxCell>
        <mxCell id="NEniKNVKTmc0Q9m42chb-16" value="" style="endArrow=classic;html=1;rounded=0;exitX=0;exitY=0.5;exitDx=0;exitDy=0;" edge="1" parent="1" source="NEniKNVKTmc0Q9m42chb-8">
          <mxGeometry width="50" height="50" relative="1" as="geometry">
            <mxPoint x="280" y="440" as="sourcePoint" />
            <mxPoint x="180" y="440" as="targetPoint" />
          </mxGeometry>
        </mxCell>
        <mxCell id="NEniKNVKTmc0Q9m42chb-18" value="Yes" style="text;html=1;strokeColor=none;fillColor=none;align=center;verticalAlign=middle;whiteSpace=wrap;rounded=0;" vertex="1" parent="1">
          <mxGeometry x="314" y="490" width="60" height="30" as="geometry" />
        </mxCell>
        <mxCell id="NEniKNVKTmc0Q9m42chb-19" value="No" style="text;html=1;strokeColor=none;fillColor=none;align=center;verticalAlign=middle;whiteSpace=wrap;rounded=0;" vertex="1" parent="1">
          <mxGeometry x="200" y="410" width="60" height="30" as="geometry" />
        </mxCell>
        <mxCell id="NEniKNVKTmc0Q9m42chb-23" value="" style="edgeStyle=orthogonalEdgeStyle;rounded=0;orthogonalLoop=1;jettySize=auto;html=1;" edge="1" parent="1" source="NEniKNVKTmc0Q9m42chb-20" target="NEniKNVKTmc0Q9m42chb-22">
          <mxGeometry relative="1" as="geometry" />
        </mxCell>
        <mxCell id="NEniKNVKTmc0Q9m42chb-20" value="print(l)" style="rounded=0;whiteSpace=wrap;html=1;" vertex="1" parent="1">
          <mxGeometry x="430" y="280" width="120" height="60" as="geometry" />
        </mxCell>
        <mxCell id="NEniKNVKTmc0Q9m42chb-22" value="End" style="rounded=1;whiteSpace=wrap;html=1;" vertex="1" parent="1">
          <mxGeometry x="590" y="280" width="120" height="60" as="geometry" />
        </mxCell>
      </root>
    </mxGraphModel>
  </diagram>
</mxfile>
